<svg width="22" height="20" viewBox="0 0 22 20" fill="none" xmlns="http://www.w3.org/2000/svg">
<path d="M11.65 13.67C11.79 13.31 11.7 12.9 11.42 12.62L9.33 10.56L9.36 10.53C11.1 8.59 12.34 6.36 13.07 4H15.01C15.55 4 16 3.55 16 3.01V2.99C16 2.45 15.55 2 15.01 2H9V1C9 0.45 8.55 0 8 0C7.45 0 7 0.45 7 1V2H0.99C0.45 2 0 2.45 0 2.99C0 3.54 0.45 3.98 0.99 3.98H11.17C10.5 5.92 9.44 7.75 8 9.35C7.19 8.46 6.51 7.49 5.94 6.47C5.78 6.18 5.49 6 5.16 6C4.47 6 4.03 6.75 4.37 7.35C5 8.48 5.77 9.56 6.67 10.56L2.3 14.87C1.9 15.26 1.9 15.9 2.3 16.29C2.69 16.68 3.32 16.68 3.72 16.29L8 12L10.02 14.02C10.53 14.53 11.4 14.34 11.65 13.67ZM16.5 8C15.9 8 15.36 8.37 15.15 8.94L11.48 18.74C11.24 19.35 11.7 20 12.35 20C12.74 20 13.09 19.76 13.23 19.39L14.12 17H18.87L19.77 19.39C19.91 19.75 20.26 20 20.65 20C21.3 20 21.76 19.35 21.53 18.74L17.86 8.94C17.64 8.37 17.1 8 16.5 8ZM14.88 15L16.5 10.67L18.12 15H14.88Z" fill="url(#paint0_linear_15_184)"/>
<defs>
<linearGradient id="paint0_linear_15_184" x1="10.795" y1="0" x2="10.795" y2="20" gradientUnits="userSpaceOnUse">
<stop stop-color="#B629F8"/>
<stop offset="1" stop-color="#800ADD"/>
</linearGradient>
</defs>
</svg>
