<svg width="365" height="39" viewBox="0 0 365 39" fill="none" xmlns="http://www.w3.org/2000/svg">
<path d="M15.464 4.016V4.976C14.44 5.008 13.656 5.136 13.112 5.36C12.6 5.552 12.264 5.936 12.104 6.512C11.944 7.056 11.864 7.92 11.864 9.104V32.912C11.864 34.064 11.944 34.928 12.104 35.504C12.296 36.08 12.648 36.464 13.16 36.656C13.672 36.848 14.44 36.976 15.464 37.04V38C14.6 37.936 13.512 37.904 12.2 37.904C10.888 37.872 9.56 37.856 8.216 37.856C6.648 37.856 5.192 37.872 3.848 37.904C2.536 37.904 1.464 37.936 0.632 38V37.04C1.656 36.976 2.424 36.848 2.936 36.656C3.448 36.464 3.784 36.08 3.944 35.504C4.136 34.928 4.232 34.064 4.232 32.912V9.104C4.232 7.92 4.136 7.056 3.944 6.512C3.784 5.936 3.432 5.552 2.888 5.36C2.376 5.136 1.624 5.008 0.632 4.976V4.016C1.464 4.048 2.536 4.08 3.848 4.112C5.192 4.144 6.648 4.16 8.216 4.16C9.56 4.16 10.888 4.144 12.2 4.112C13.512 4.08 14.6 4.048 15.464 4.016ZM27.5679 5.312V13.184H33.2319V14.144H27.5679V33.536C27.5679 34.496 27.7439 35.184 28.0959 35.6C28.4479 35.984 28.9759 36.176 29.6799 36.176C30.2559 36.176 30.8319 35.968 31.4079 35.552C31.9839 35.104 32.4959 34.352 32.9439 33.296L33.7599 33.728C33.2479 35.168 32.4639 36.352 31.4079 37.28C30.3839 38.208 28.9759 38.672 27.1839 38.672C26.1279 38.672 25.1999 38.528 24.3999 38.24C23.5999 37.984 22.9279 37.584 22.3839 37.04C21.6799 36.336 21.2159 35.472 20.9919 34.448C20.7679 33.392 20.6559 32.032 20.6559 30.368V14.144H16.6239V13.184H20.6559V6.848C21.9999 6.848 23.2319 6.736 24.3519 6.512C25.5039 6.256 26.5759 5.856 27.5679 5.312ZM41.3229 38.336C39.8829 38.336 38.6829 38.064 37.7229 37.52C36.7629 36.976 36.0589 36.256 35.6109 35.36C35.1629 34.432 34.9389 33.424 34.9389 32.336C34.9389 30.96 35.2429 29.84 35.8509 28.976C36.4909 28.112 37.3069 27.408 38.2989 26.864C39.2909 26.32 40.3309 25.872 41.4189 25.52C42.5389 25.168 43.5949 24.832 44.5869 24.512C45.6109 24.16 46.4269 23.76 47.0349 23.312C47.6749 22.832 47.9949 22.224 47.9949 21.488V17.744C47.9949 16.912 47.8509 16.176 47.5629 15.536C47.3069 14.864 46.8909 14.352 46.3149 14C45.7709 13.648 45.0509 13.472 44.1549 13.472C43.5149 13.472 42.8749 13.568 42.2349 13.76C41.5949 13.92 41.0669 14.208 40.6509 14.624C41.5469 14.944 42.2349 15.44 42.7149 16.112C43.2269 16.752 43.4829 17.488 43.4829 18.32C43.4829 19.408 43.0989 20.272 42.3309 20.912C41.5949 21.552 40.7149 21.872 39.6909 21.872C38.5389 21.872 37.6589 21.52 37.0509 20.816C36.4749 20.08 36.1869 19.2 36.1869 18.176C36.1869 17.248 36.4109 16.48 36.8589 15.872C37.3389 15.264 37.9949 14.688 38.8269 14.144C39.7229 13.632 40.7949 13.232 42.0429 12.944C43.3229 12.656 44.6989 12.512 46.1709 12.512C47.6429 12.512 48.9709 12.672 50.1549 12.992C51.3389 13.28 52.3309 13.824 53.1309 14.624C53.8669 15.36 54.3469 16.272 54.5709 17.36C54.7949 18.416 54.9069 19.76 54.9069 21.392V34.448C54.9069 35.248 54.9869 35.808 55.1469 36.128C55.3069 36.416 55.5789 36.56 55.9629 36.56C56.2509 36.56 56.5229 36.48 56.7789 36.32C57.0669 36.16 57.3709 35.968 57.6909 35.744L58.1709 36.56C57.4989 37.136 56.7149 37.584 55.8189 37.904C54.9549 38.192 53.9789 38.336 52.8909 38.336C51.7069 38.336 50.7629 38.176 50.0589 37.856C49.3549 37.504 48.8429 37.04 48.5229 36.464C48.2349 35.888 48.0909 35.216 48.0909 34.448C47.3229 35.664 46.3949 36.624 45.3069 37.328C44.2189 38 42.8909 38.336 41.3229 38.336ZM44.7309 35.264C45.3709 35.264 45.9469 35.12 46.4589 34.832C47.0029 34.512 47.5149 34 47.9949 33.296V23.456C47.7069 23.936 47.3069 24.368 46.7949 24.752C46.2829 25.136 45.7389 25.536 45.1629 25.952C44.5869 26.336 44.0269 26.768 43.4829 27.248C42.9709 27.728 42.5549 28.32 42.2349 29.024C41.9149 29.728 41.7549 30.576 41.7549 31.568C41.7549 32.816 42.0269 33.744 42.5709 34.352C43.1149 34.96 43.8349 35.264 44.7309 35.264ZM76.9666 12.512C78.3106 12.512 79.3986 12.688 80.2306 13.04C81.0626 13.36 81.7346 13.808 82.2466 14.384C82.7586 14.992 83.1266 15.792 83.3506 16.784C83.5746 17.744 83.6866 19.024 83.6866 20.624V33.536C83.6866 34.88 83.8946 35.792 84.3106 36.272C84.7266 36.752 85.4466 36.992 86.4706 36.992V38C85.8946 37.968 85.0146 37.936 83.8306 37.904C82.6786 37.84 81.5426 37.808 80.4226 37.808C79.2706 37.808 78.1346 37.84 77.0146 37.904C75.8946 37.936 75.0466 37.968 74.4706 38V36.992C75.3346 36.992 75.9266 36.752 76.2466 36.272C76.5986 35.792 76.7746 34.88 76.7746 33.536V18.608C76.7746 17.808 76.7106 17.12 76.5826 16.544C76.4546 15.936 76.1986 15.472 75.8146 15.152C75.4626 14.8 74.9186 14.624 74.1826 14.624C73.3506 14.624 72.5826 14.864 71.8786 15.344C71.1746 15.824 70.5986 16.496 70.1506 17.36C69.7346 18.192 69.5266 19.136 69.5266 20.192V33.536C69.5266 34.88 69.7026 35.792 70.0546 36.272C70.4066 36.752 70.9986 36.992 71.8306 36.992V38C71.3186 37.968 70.5186 37.936 69.4306 37.904C68.3746 37.84 67.2866 37.808 66.1666 37.808C64.9506 37.808 63.7026 37.84 62.4226 37.904C61.1426 37.936 60.1826 37.968 59.5426 38V36.992C60.6626 36.992 61.4466 36.752 61.8946 36.272C62.3746 35.792 62.6146 34.88 62.6146 33.536V18.416C62.6146 16.976 62.3906 15.92 61.9426 15.248C61.5266 14.544 60.7266 14.192 59.5426 14.192V13.184C60.5666 13.28 61.5586 13.328 62.5186 13.328C63.8626 13.328 65.1106 13.28 66.2626 13.184C67.4466 13.056 68.5346 12.88 69.5266 12.656V16.976C70.2946 15.376 71.3346 14.24 72.6466 13.568C73.9586 12.864 75.3986 12.512 76.9666 12.512ZM91.4146 12.512C92.7586 12.512 93.8466 12.688 94.6786 13.04C95.5106 13.36 96.1826 13.808 96.6946 14.384C97.2066 14.992 97.5746 15.792 97.7986 16.784C98.0226 17.744 98.1346 19.024 98.1346 20.624V33.536C98.1346 34.88 98.3586 35.792 98.8066 36.272C99.2866 36.752 100.087 36.992 101.207 36.992V38C100.599 37.968 99.6866 37.936 98.4706 37.904C97.2546 37.84 96.0546 37.808 94.8706 37.808C93.7186 37.808 92.5826 37.84 91.4626 37.904C90.3426 37.936 89.4946 37.968 88.9186 38V36.992C89.7826 36.992 90.3746 36.752 90.6946 36.272C91.0466 35.792 91.2226 34.88 91.2226 33.536V18.608C91.2226 17.808 91.1426 17.12 90.9826 16.544C90.8546 15.936 90.5826 15.472 90.1666 15.152C89.7826 14.8 89.1746 14.624 88.3426 14.624C87.5106 14.624 86.7426 14.88 86.0386 15.392C85.3346 15.904 84.7586 16.592 84.3106 17.456C83.8946 18.32 83.6706 19.28 83.6386 20.336L83.3986 17.408C84.2626 15.488 85.3986 14.192 86.8066 13.52C88.2466 12.848 89.7826 12.512 91.4146 12.512ZM109.62 38.336C108.18 38.336 106.98 38.064 106.02 37.52C105.06 36.976 104.356 36.256 103.908 35.36C103.46 34.432 103.236 33.424 103.236 32.336C103.236 30.96 103.54 29.84 104.148 28.976C104.788 28.112 105.604 27.408 106.596 26.864C107.588 26.32 108.628 25.872 109.716 25.52C110.836 25.168 111.892 24.832 112.884 24.512C113.908 24.16 114.724 23.76 115.332 23.312C115.972 22.832 116.292 22.224 116.292 21.488V17.744C116.292 16.912 116.148 16.176 115.86 15.536C115.604 14.864 115.188 14.352 114.612 14C114.068 13.648 113.348 13.472 112.452 13.472C111.812 13.472 111.172 13.568 110.532 13.76C109.892 13.92 109.364 14.208 108.948 14.624C109.844 14.944 110.532 15.44 111.012 16.112C111.524 16.752 111.78 17.488 111.78 18.32C111.78 19.408 111.396 20.272 110.628 20.912C109.892 21.552 109.012 21.872 107.988 21.872C106.836 21.872 105.956 21.52 105.348 20.816C104.772 20.08 104.484 19.2 104.484 18.176C104.484 17.248 104.708 16.48 105.156 15.872C105.636 15.264 106.292 14.688 107.124 14.144C108.02 13.632 109.092 13.232 110.34 12.944C111.62 12.656 112.996 12.512 114.468 12.512C115.94 12.512 117.268 12.672 118.452 12.992C119.636 13.28 120.628 13.824 121.428 14.624C122.164 15.36 122.644 16.272 122.868 17.36C123.092 18.416 123.204 19.76 123.204 21.392V34.448C123.204 35.248 123.284 35.808 123.444 36.128C123.604 36.416 123.876 36.56 124.26 36.56C124.548 36.56 124.82 36.48 125.076 36.32C125.364 36.16 125.668 35.968 125.988 35.744L126.468 36.56C125.796 37.136 125.012 37.584 124.116 37.904C123.252 38.192 122.276 38.336 121.188 38.336C120.004 38.336 119.06 38.176 118.356 37.856C117.652 37.504 117.14 37.04 116.82 36.464C116.532 35.888 116.388 35.216 116.388 34.448C115.62 35.664 114.692 36.624 113.604 37.328C112.516 38 111.188 38.336 109.62 38.336ZM113.028 35.264C113.668 35.264 114.244 35.12 114.756 34.832C115.3 34.512 115.812 34 116.292 33.296V23.456C116.004 23.936 115.604 24.368 115.092 24.752C114.58 25.136 114.036 25.536 113.46 25.952C112.884 26.336 112.324 26.768 111.78 27.248C111.268 27.728 110.852 28.32 110.532 29.024C110.212 29.728 110.052 30.576 110.052 31.568C110.052 32.816 110.324 33.744 110.868 34.352C111.412 34.96 112.132 35.264 113.028 35.264ZM144.352 12.512C145.376 12.512 146.208 12.736 146.848 13.184C147.488 13.6 147.952 14.144 148.24 14.816C148.56 15.488 148.72 16.192 148.72 16.928C148.72 18.112 148.368 19.088 147.664 19.856C146.992 20.592 146.096 20.96 144.976 20.96C143.856 20.96 142.976 20.688 142.336 20.144C141.728 19.568 141.424 18.816 141.424 17.888C141.424 16.992 141.616 16.256 142 15.68C142.416 15.072 142.928 14.56 143.536 14.144C143.088 14.016 142.64 14.032 142.192 14.192C141.584 14.288 141.008 14.544 140.464 14.96C139.92 15.344 139.456 15.84 139.072 16.448C138.688 17.024 138.384 17.664 138.16 18.368C137.936 19.04 137.824 19.696 137.824 20.336V33.056C137.824 34.592 138.192 35.632 138.928 36.176C139.696 36.72 140.832 36.992 142.336 36.992V38C141.6 37.968 140.528 37.936 139.12 37.904C137.712 37.84 136.24 37.808 134.704 37.808C133.424 37.808 132.128 37.84 130.816 37.904C129.504 37.936 128.512 37.968 127.84 38V36.992C128.96 36.992 129.744 36.752 130.192 36.272C130.672 35.792 130.912 34.88 130.912 33.536V18.416C130.912 16.976 130.688 15.92 130.24 15.248C129.824 14.544 129.024 14.192 127.84 14.192V13.184C128.864 13.28 129.856 13.328 130.816 13.328C132.16 13.328 133.408 13.28 134.56 13.184C135.744 13.056 136.832 12.88 137.824 12.656V17.12C138.208 16.256 138.72 15.472 139.359 14.768C140 14.064 140.736 13.52 141.568 13.136C142.4 12.72 143.328 12.512 144.352 12.512ZM202.178 4.016V4.976C201.154 5.008 200.386 5.136 199.874 5.36C199.362 5.552 199.01 5.936 198.818 6.512C198.658 7.056 198.578 7.92 198.578 9.104V32.912C198.578 34.064 198.658 34.928 198.818 35.504C199.01 36.08 199.362 36.464 199.874 36.656C200.386 36.848 201.154 36.976 202.178 37.04V38C201.282 37.936 200.146 37.904 198.77 37.904C197.426 37.872 196.05 37.856 194.642 37.856C193.106 37.856 191.666 37.872 190.322 37.904C188.978 37.904 187.89 37.936 187.058 38V37.04C188.146 36.976 188.962 36.848 189.506 36.656C190.082 36.464 190.466 36.08 190.658 35.504C190.85 34.928 190.946 34.064 190.946 32.912V6.944H191.282L179.378 38.048H178.61L165.65 7.136V30.128C165.65 31.888 165.746 33.248 165.938 34.208C166.13 35.136 166.546 35.808 167.186 36.224C167.858 36.608 168.898 36.88 170.306 37.04V38C169.698 37.936 168.898 37.904 167.906 37.904C166.914 37.872 165.986 37.856 165.122 37.856C164.386 37.856 163.634 37.872 162.866 37.904C162.098 37.904 161.458 37.936 160.946 38V37.04C161.97 36.88 162.738 36.608 163.25 36.224C163.762 35.84 164.098 35.216 164.258 34.352C164.45 33.456 164.546 32.24 164.546 30.704V9.104C164.546 7.92 164.45 7.056 164.258 6.512C164.098 5.936 163.746 5.552 163.202 5.36C162.69 5.136 161.938 5.008 160.946 4.976V4.016C161.458 4.048 162.098 4.08 162.866 4.112C163.634 4.144 164.386 4.16 165.122 4.16C166.498 4.16 167.842 4.144 169.154 4.112C170.498 4.08 171.682 4.048 172.706 4.016L182.786 28.352L181.586 29.456L191.234 4.16C191.778 4.16 192.338 4.16 192.914 4.16C193.49 4.16 194.066 4.16 194.642 4.16C196.05 4.16 197.426 4.144 198.77 4.112C200.146 4.08 201.282 4.048 202.178 4.016ZM216.395 12.512C219.211 12.512 221.419 13.344 223.019 15.008C224.619 16.672 225.419 19.392 225.419 23.168H209.627L209.531 22.256H219.371C219.403 20.688 219.307 19.248 219.083 17.936C218.859 16.592 218.507 15.52 218.027 14.72C217.547 13.92 216.907 13.52 216.107 13.52C214.987 13.52 214.027 14.224 213.227 15.632C212.459 17.04 211.995 19.376 211.835 22.64L211.979 22.928C211.947 23.312 211.915 23.712 211.883 24.128C211.883 24.544 211.883 24.976 211.883 25.424C211.883 27.632 212.187 29.424 212.795 30.8C213.435 32.176 214.235 33.184 215.195 33.824C216.155 34.432 217.131 34.736 218.123 34.736C218.795 34.736 219.483 34.64 220.187 34.448C220.923 34.224 221.659 33.84 222.395 33.296C223.131 32.72 223.819 31.92 224.459 30.896L225.323 31.184C224.939 32.4 224.331 33.584 223.499 34.736C222.667 35.888 221.611 36.832 220.331 37.568C219.051 38.304 217.515 38.672 215.723 38.672C213.547 38.672 211.627 38.208 209.963 37.28C208.299 36.352 206.987 34.944 206.027 33.056C205.099 31.168 204.635 28.768 204.635 25.856C204.635 22.88 205.131 20.4 206.123 18.416C207.147 16.432 208.539 14.96 210.299 14C212.091 13.008 214.123 12.512 216.395 12.512ZM251.815 0.415998V32.72C251.815 34.16 252.039 35.232 252.487 35.936C252.935 36.608 253.735 36.944 254.887 36.944V37.952C253.895 37.856 252.903 37.808 251.911 37.808C250.567 37.808 249.303 37.856 248.119 37.952C246.967 38.048 245.895 38.224 244.903 38.48V6.176C244.903 4.736 244.679 3.68 244.231 3.008C243.815 2.304 243.015 1.952 241.831 1.952V0.943999C242.855 1.04 243.847 1.088 244.807 1.088C246.119 1.088 247.367 1.04 248.551 0.943999C249.735 0.815999 250.823 0.639998 251.815 0.415998ZM239.575 12.512C240.983 12.512 242.215 12.752 243.271 13.232C244.359 13.68 245.207 14.448 245.815 15.536L245.239 16.064C244.823 15.296 244.263 14.752 243.559 14.432C242.887 14.08 242.167 13.904 241.399 13.904C239.767 13.904 238.471 14.864 237.511 16.784C236.551 18.672 236.087 21.6 236.119 25.568C236.119 28.288 236.295 30.464 236.647 32.096C237.031 33.696 237.559 34.848 238.231 35.552C238.935 36.256 239.735 36.608 240.631 36.608C241.719 36.608 242.695 36.176 243.559 35.312C244.423 34.448 244.887 33.28 244.951 31.808L245.191 33.488C244.711 35.184 243.927 36.48 242.839 37.376C241.783 38.24 240.391 38.672 238.663 38.672C236.775 38.672 235.079 38.208 233.575 37.28C232.103 36.352 230.951 34.928 230.119 33.008C229.287 31.056 228.871 28.544 228.871 25.472C228.871 22.56 229.335 20.16 230.263 18.272C231.191 16.352 232.455 14.912 234.055 13.952C235.687 12.992 237.527 12.512 239.575 12.512ZM269.27 12.512C272.086 12.512 274.294 13.344 275.894 15.008C277.494 16.672 278.294 19.392 278.294 23.168H262.502L262.406 22.256H272.246C272.278 20.688 272.182 19.248 271.958 17.936C271.734 16.592 271.382 15.52 270.902 14.72C270.422 13.92 269.782 13.52 268.982 13.52C267.862 13.52 266.902 14.224 266.102 15.632C265.334 17.04 264.87 19.376 264.71 22.64L264.854 22.928C264.822 23.312 264.79 23.712 264.758 24.128C264.758 24.544 264.758 24.976 264.758 25.424C264.758 27.632 265.062 29.424 265.67 30.8C266.31 32.176 267.11 33.184 268.07 33.824C269.03 34.432 270.006 34.736 270.998 34.736C271.67 34.736 272.358 34.64 273.062 34.448C273.798 34.224 274.534 33.84 275.27 33.296C276.006 32.72 276.694 31.92 277.334 30.896L278.198 31.184C277.814 32.4 277.206 33.584 276.374 34.736C275.542 35.888 274.486 36.832 273.206 37.568C271.926 38.304 270.39 38.672 268.598 38.672C266.422 38.672 264.502 38.208 262.838 37.28C261.174 36.352 259.862 34.944 258.902 33.056C257.974 31.168 257.51 28.768 257.51 25.856C257.51 22.88 258.006 20.4 258.998 18.416C260.022 16.432 261.414 14.96 263.174 14C264.966 13.008 266.998 12.512 269.27 12.512ZM287.314 0.799998C288.658 0.799998 289.714 1.136 290.482 1.808C291.282 2.448 291.682 3.344 291.682 4.496C291.682 5.648 291.282 6.56 290.482 7.232C289.714 7.872 288.658 8.192 287.314 8.192C285.97 8.192 284.898 7.872 284.098 7.232C283.33 6.56 282.946 5.648 282.946 4.496C282.946 3.344 283.33 2.448 284.098 1.808C284.898 1.136 285.97 0.799998 287.314 0.799998ZM291.058 12.656V33.536C291.058 34.88 291.282 35.792 291.73 36.272C292.21 36.752 293.01 36.992 294.13 36.992V38C293.554 37.968 292.658 37.936 291.442 37.904C290.226 37.84 288.994 37.808 287.746 37.808C286.498 37.808 285.234 37.84 283.954 37.904C282.674 37.936 281.714 37.968 281.074 38V36.992C282.194 36.992 282.978 36.752 283.426 36.272C283.906 35.792 284.146 34.88 284.146 33.536V18.416C284.146 16.976 283.922 15.92 283.474 15.248C283.058 14.544 282.258 14.192 281.074 14.192V13.184C282.098 13.28 283.09 13.328 284.05 13.328C285.394 13.328 286.642 13.28 287.794 13.184C288.978 13.056 290.066 12.88 291.058 12.656ZM312.727 12.512C313.751 12.512 314.583 12.736 315.223 13.184C315.863 13.6 316.327 14.144 316.615 14.816C316.935 15.488 317.095 16.192 317.095 16.928C317.095 18.112 316.743 19.088 316.039 19.856C315.367 20.592 314.471 20.96 313.351 20.96C312.231 20.96 311.351 20.688 310.711 20.144C310.103 19.568 309.799 18.816 309.799 17.888C309.799 16.992 309.991 16.256 310.375 15.68C310.791 15.072 311.303 14.56 311.911 14.144C311.463 14.016 311.015 14.032 310.567 14.192C309.959 14.288 309.383 14.544 308.839 14.96C308.295 15.344 307.831 15.84 307.447 16.448C307.063 17.024 306.759 17.664 306.535 18.368C306.311 19.04 306.199 19.696 306.199 20.336V33.056C306.199 34.592 306.567 35.632 307.303 36.176C308.071 36.72 309.207 36.992 310.711 36.992V38C309.975 37.968 308.903 37.936 307.495 37.904C306.087 37.84 304.615 37.808 303.079 37.808C301.799 37.808 300.503 37.84 299.191 37.904C297.879 37.936 296.887 37.968 296.215 38V36.992C297.335 36.992 298.119 36.752 298.567 36.272C299.047 35.792 299.287 34.88 299.287 33.536V18.416C299.287 16.976 299.063 15.92 298.615 15.248C298.199 14.544 297.399 14.192 296.215 14.192V13.184C297.239 13.28 298.231 13.328 299.191 13.328C300.535 13.328 301.783 13.28 302.935 13.184C304.119 13.056 305.207 12.88 306.199 12.656V17.12C306.583 16.256 307.095 15.472 307.734 14.768C308.375 14.064 309.111 13.52 309.943 13.136C310.775 12.72 311.703 12.512 312.727 12.512ZM330.349 12.512C332.685 12.512 334.733 12.944 336.493 13.808C338.253 14.672 339.629 16.064 340.621 17.984C341.613 19.904 342.109 22.448 342.109 25.616C342.109 28.784 341.613 31.328 340.621 33.248C339.629 35.136 338.253 36.512 336.493 37.376C334.733 38.24 332.685 38.672 330.349 38.672C328.077 38.672 326.045 38.24 324.253 37.376C322.493 36.512 321.101 35.136 320.077 33.248C319.085 31.328 318.589 28.784 318.589 25.616C318.589 22.448 319.085 19.904 320.077 17.984C321.101 16.064 322.493 14.672 324.253 13.808C326.045 12.944 328.077 12.512 330.349 12.512ZM330.349 13.472C329.069 13.472 327.997 14.432 327.133 16.352C326.269 18.24 325.837 21.328 325.837 25.616C325.837 29.904 326.269 32.992 327.133 34.88C327.997 36.768 329.069 37.712 330.349 37.712C331.661 37.712 332.733 36.768 333.565 34.88C334.429 32.992 334.861 29.904 334.861 25.616C334.861 21.328 334.429 18.24 333.565 16.352C332.733 14.432 331.661 13.472 330.349 13.472ZM354.609 12.512C355.953 12.512 357.121 12.688 358.113 13.04C359.137 13.36 359.873 13.68 360.321 14C361.409 14.736 362.081 14.256 362.337 12.56H363.345C363.281 13.456 363.233 14.56 363.201 15.872C363.169 17.152 363.153 18.864 363.153 21.008H362.145C361.985 19.824 361.681 18.656 361.233 17.504C360.785 16.352 360.129 15.408 359.265 14.672C358.433 13.936 357.345 13.568 356.001 13.568C355.073 13.568 354.289 13.84 353.649 14.384C353.009 14.896 352.689 15.648 352.689 16.64C352.689 17.6 352.977 18.448 353.553 19.184C354.129 19.888 354.865 20.576 355.761 21.248C356.689 21.888 357.649 22.576 358.641 23.312C359.697 24.112 360.657 24.912 361.521 25.712C362.385 26.48 363.073 27.328 363.585 28.256C364.097 29.184 364.353 30.288 364.353 31.568C364.353 33.008 363.937 34.272 363.105 35.36C362.273 36.416 361.169 37.232 359.793 37.808C358.449 38.384 356.945 38.672 355.281 38.672C354.321 38.672 353.457 38.576 352.689 38.384C351.953 38.192 351.313 37.952 350.769 37.664C350.353 37.472 349.953 37.296 349.569 37.136C349.217 36.944 348.881 36.784 348.561 36.656C348.241 36.56 347.953 36.672 347.697 36.992C347.473 37.312 347.297 37.76 347.169 38.336H346.161C346.225 37.312 346.273 36.064 346.305 34.592C346.337 33.12 346.353 31.168 346.353 28.736H347.361C347.553 30.464 347.905 32 348.417 33.344C348.929 34.656 349.617 35.696 350.481 36.464C351.377 37.2 352.497 37.568 353.841 37.568C354.385 37.568 354.913 37.456 355.425 37.232C355.937 37.008 356.353 36.64 356.673 36.128C357.025 35.616 357.201 34.96 357.201 34.16C357.201 32.752 356.737 31.584 355.809 30.656C354.913 29.728 353.761 28.72 352.353 27.632C351.329 26.8 350.353 25.984 349.425 25.184C348.529 24.352 347.793 23.456 347.217 22.496C346.641 21.504 346.353 20.384 346.353 19.136C346.353 17.696 346.737 16.48 347.505 15.488C348.273 14.496 349.281 13.76 350.529 13.28C351.809 12.768 353.169 12.512 354.609 12.512Z" fill="#141414"/>
</svg>
